<?xml version="1.0" encoding="utf-8"?>
<!-- Generator: Adobe Illustrator 22.0.0, SVG Export Plug-In . SVG Version: 6.00 Build 0)  -->
<svg version="1.1" id="Layer_1" xmlns="http://www.w3.org/2000/svg" xmlns:xlink="http://www.w3.org/1999/xlink" x="0px" y="0px"
	 viewBox="0 0 560 960" style="enable-background:new 0 0 560 960;" xml:space="preserve">
<style type="text/css">
	.st0{clip-path:url(#SVGID_2_);fill:#F1F1F2;}
	.st1{clip-path:url(#SVGID_4_);fill:#320140;}
	.st2{clip-path:url(#SVGID_6_);fill:#404041;}
</style>
<g>
	<defs>
		<rect id="SVGID_1_" x="121.4" y="113.4" width="318.1" height="732.6"/>
	</defs>
	<clipPath id="SVGID_2_">
		<use xlink:href="#SVGID_1_"  style="overflow:visible;"/>
	</clipPath>
	<path class="st0" d="M372.8,486.1l0-142.2h-91.4h-93.3l0.1,142.2l0,0.1h93.3h91.3L372.8,486.1z M372.8,326v-66.1h-91.4h-93.3V326
		h93.3H372.8z M439.6,515l-4,322.1c0,4.9-4,8.9-8.9,8.9c-4.9,0-8.9-4-8.9-8.9l-1.1-83.7h-22.4h-0.1l-0.6,52.1c0,4.5-3.7,8.2-8.2,8.2
		c-4.5,0-8.2-3.7-8.2-8.2l-0.7-52.1h0h-95h-96.9l-0.7,52.1c0,4.5-3.7,8.2-8.1,8.2c-4.5,0-8.2-3.7-8.2-8.2l-0.6-52.1h-0.1h-22.4
		l-1.1,83.7c0,4.9-4,8.9-8.9,8.9c-4.9,0-8.9-4-8.9-8.9l-4-322.1c0-7.2,5.8-13,13-13c3.6,0,6.8,1.4,9.2,3.8h0l18.8-8.1h-0.1
		l-0.1-340.5c0-4.3,0.9-8.4,2.3-11.7c-1.4-3.3-2.2-7.3-2.2-11.5c0-11.3,5.8-20.5,13-20.5c7.2,0,13,9.2,13,20.5
		c0,4.4-0.9,8.5-2.4,11.8l0.1,0c1.4,3.3,2.2,7.2,2.2,11.5v0v6.2h0.5c2.7,0,16.6-0.3,34.5-5.6c17.7-5.2,26.5-17.2,57.3-17.2
		c30,0,39.2,11.3,55.9,16.7l-0.1,0.4c5.1,3.3,8.1,7.5,8.1,11.9c0,4.3-2.8,8.3-7.7,11.6h-55.3h-93.3l0,60.8h93.3h91.4l0-60.8h-15.3
		c-1.4-3.4-2.1-7-2.1-10.7c0-2.9,0.5-5.8,1.3-8.6c8.2,1.3,13.9,1.3,15.5,1.3h0.5v-6.2v0c0-4.2,0.8-8.2,2.2-11.5l0.1,0
		c-1.5-3.3-2.4-7.4-2.4-11.8c0-11.3,5.8-20.5,13-20.5c7.2,0,13,9.2,13,20.5c0,4.3-0.8,8.3-2.2,11.5c1.5,3.3,2.3,7.3,2.3,11.7
		l-0.1,340.5h-0.1l18.8,8.1h0c2.3-2.3,5.6-3.8,9.2-3.8C433.8,502,439.6,507.8,439.6,515 M186.6,607.5l94.9,0l92.9,0l-0.9-65.5h-92
		h-93.9L186.6,607.5z M186.2,634.1H281h93.7l-0.1-8.8v0h-93.2h-95.1v0L186.2,634.1z M186,652l-1.2,83.5h96.7h94.8L375,652h-93.6H186
		z M166.6,735.5l-0.1-9.5l-22,9.5H166.6z M144.8,717h0.2l21.1-9.1l0.1-0.1l-0.7-55.8h-19.9L144.8,717z M146.1,615.7l18.9-8.2
		l-0.8-65.6H147L146.1,615.7z M165.3,634.1l-0.1-8.4l-19.5,8.4H165.3z M416.2,717l-0.8-65h-19.9l-0.7,55.8l0.1,0.1l21.1,9.1H416.2z
		 M414.9,615.7L414,542h-17.2l-0.8,65.6L414.9,615.7z M395.8,625.7l-0.1,8.4h19.6L395.8,625.7z M394.4,735.5h22.1l-22-9.5
		L394.4,735.5z"/>
</g>
</svg>
